<svg width="70" height="70" viewBox="0 0 70 70" fill="none" xmlns="http://www.w3.org/2000/svg">
<rect width="70" height="70" fill="url(#paint0_linear_1129_5574)"/>
<mask id="mask0_1129_5574" style="mask-type:alpha" maskUnits="userSpaceOnUse" x="15" y="15" width="40" height="40">
<rect x="15" y="15" width="40" height="40" fill="#D9D9D9"/>
</mask>
<g mask="url(#mask0_1129_5574)">
<path d="M30 44.5834H40C40.3542 44.5834 40.651 44.4636 40.8904 44.2238C41.1301 43.9841 41.25 43.6872 41.25 43.333C41.25 42.9786 41.1301 42.6817 40.8904 42.4426C40.651 42.2031 40.3542 42.0834 40 42.0834H30C29.6458 42.0834 29.349 42.2033 29.1096 42.443C28.8699 42.6827 28.75 42.9797 28.75 43.3338C28.75 43.6883 28.8699 43.9851 29.1096 44.2242C29.349 44.4637 29.6458 44.5834 30 44.5834ZM30 37.9167H40C40.3542 37.9167 40.651 37.7969 40.8904 37.5572C41.1301 37.3174 41.25 37.0205 41.25 36.6663C41.25 36.3119 41.1301 36.0151 40.8904 35.7759C40.651 35.5365 40.3542 35.4167 40 35.4167H30C29.6458 35.4167 29.349 35.5366 29.1096 35.7763C28.8699 36.0161 28.75 36.313 28.75 36.6672C28.75 37.0216 28.8699 37.3184 29.1096 37.5576C29.349 37.797 29.6458 37.9167 30 37.9167ZM25.5129 50.8334C24.671 50.8334 23.9583 50.5417 23.375 49.9584C22.7917 49.3751 22.5 48.6624 22.5 47.8205V22.1797C22.5 21.3377 22.7917 20.6251 23.375 20.0417C23.9583 19.4584 24.671 19.1667 25.5129 19.1667H37.5033C37.9097 19.1667 38.2971 19.2448 38.6654 19.4009C39.0337 19.5567 39.3547 19.7715 39.6283 20.0451L46.6217 27.0384C46.8953 27.312 47.11 27.633 47.2658 28.0013C47.4219 28.3697 47.5 28.757 47.5 29.1634V47.8205C47.5 48.6624 47.2083 49.3751 46.625 49.9584C46.0417 50.5417 45.329 50.8334 44.4871 50.8334H25.5129ZM37.5 27.6667C37.5 28.0917 37.6437 28.448 37.9312 28.7355C38.2188 29.023 38.575 29.1667 39 29.1667H45L37.5 21.6667V27.6667Z" fill="white"/>
</g>
<defs>
<linearGradient id="paint0_linear_1129_5574" x1="0" y1="0" x2="70" y2="70" gradientUnits="userSpaceOnUse">
<stop stop-color="#FDCA40"/>
<stop offset="1" stop-color="#FB8500"/>
</linearGradient>
</defs>
</svg>
