<svg width="160" height="160" viewBox="0 0 160 160" fill="none" xmlns="http://www.w3.org/2000/svg">
<rect width="160" height="160" fill="white" fill-opacity="0.92"/>
<mask id="mask0_1129_5581" style="mask-type:alpha" maskUnits="userSpaceOnUse" x="60" y="27" width="40" height="40">
<rect x="60" y="27" width="40" height="40" fill="#D9D9D9"/>
</mask>
<g mask="url(#mask0_1129_5581)">
<path d="M75.0001 56.9999H85.0001C85.4723 56.9999 85.8681 56.8402 86.1876 56.5208C86.507 56.2013 86.6667 55.8055 86.6667 55.3333C86.6667 54.861 86.507 54.4652 86.1876 54.1458C85.8681 53.8263 85.4723 53.6666 85.0001 53.6666H75.0001C74.5279 53.6666 74.132 53.8263 73.8126 54.1458C73.4931 54.4652 73.3334 54.861 73.3334 55.3333C73.3334 55.8055 73.4931 56.2013 73.8126 56.5208C74.132 56.8402 74.5279 56.9999 75.0001 56.9999ZM75.0001 50.3333H85.0001C85.4723 50.3333 85.8681 50.1735 86.1876 49.8541C86.507 49.5346 86.6667 49.1388 86.6667 48.6666C86.6667 48.1944 86.507 47.7985 86.1876 47.4791C85.8681 47.1596 85.4723 46.9999 85.0001 46.9999H75.0001C74.5279 46.9999 74.132 47.1596 73.8126 47.4791C73.4931 47.7985 73.3334 48.1944 73.3334 48.6666C73.3334 49.1388 73.4931 49.5346 73.8126 49.8541C74.132 50.1735 74.5279 50.3333 75.0001 50.3333ZM70.0001 63.6666C69.0834 63.6666 68.2987 63.3402 67.6459 62.6874C66.9931 62.0346 66.6667 61.2499 66.6667 60.3333V33.6666C66.6667 32.7499 66.9931 31.9652 67.6459 31.3124C68.2987 30.6596 69.0834 30.3333 70.0001 30.3333H81.9584C82.4029 30.3333 82.8265 30.4166 83.2292 30.5833C83.632 30.7499 83.9862 30.986 84.2917 31.2916L92.3751 39.3749C92.6806 39.6805 92.9167 40.0346 93.0834 40.4374C93.2501 40.8402 93.3334 41.2638 93.3334 41.7083V60.3333C93.3334 61.2499 93.007 62.0346 92.3542 62.6874C91.7015 63.3402 90.9167 63.6666 90.0001 63.6666H70.0001ZM81.6667 40.3333V33.6666H70.0001V60.3333H90.0001V41.9999H83.3334C82.8612 41.9999 82.4654 41.8402 82.1459 41.5208C81.8265 41.2013 81.6667 40.8055 81.6667 40.3333Z" fill="#FDCA40"/>
</g>
<path d="M24.0547 79.7598C25.9141 79.7598 27.2539 81.4551 27.2676 84.1211C27.2539 86.8145 25.9141 88.4961 24.0547 88.4961C22.1816 88.4961 20.8281 86.8145 20.8418 84.1211C20.8281 81.4551 22.1816 79.7598 24.0547 79.7598ZM24.0547 81.127C23.0156 81.127 22.3047 82.2344 22.3047 84.1211C22.3047 86.0215 23.0156 87.1289 24.0547 87.1289C25.1074 87.1289 25.8047 86.0215 25.8047 84.1211C25.8047 82.2344 25.1074 81.127 24.0547 81.127ZM30.4121 78.8574V83.6016H32.3125V84.8867H30.4121V91.2168H28.8945V78.8574H30.4121ZM37.5215 81.0039C37.5215 82.5352 38.5742 84.0527 40.543 84.668L39.7637 85.8438C38.3623 85.3994 37.3438 84.4629 36.7832 83.2871C36.2227 84.5654 35.1768 85.584 33.707 86.0762L32.9277 84.9004C34.9102 84.2305 35.9766 82.6172 35.9902 81.0039V80.8535H33.3242V79.6367H40.1191V80.8535H37.5215V81.0039ZM43.127 78.8574V86.3086H41.5957V78.8574H43.127ZM43.127 86.8828V91.2168H41.5957V88.1133H34.6914V86.8828H43.127ZM58.918 78.8574V91.2168H57.4688V78.8574H58.918ZM56.293 79.1582V90.6289H54.8574V84.9414H52.6562C51.9316 86.3633 50.7695 87.5938 49.0195 88.6055L48.1582 87.5254C50.7217 86.0146 51.8906 84.0801 52.123 81.5918H48.7871V80.3613H53.627C53.627 81.5576 53.4834 82.6787 53.1484 83.7246H54.8574V79.1582H56.293ZM65.0293 81.8242C65.0156 84.0938 66.2051 86.3633 68.2148 87.2246L67.3125 88.4414C65.8906 87.7852 64.8447 86.4727 64.2773 84.8594C63.71 86.6025 62.6504 88.0244 61.1465 88.7285L60.2168 87.457C62.2812 86.5684 63.4844 84.2031 63.4844 81.8242V79.8555H65.0293V81.8242ZM70.6348 78.8574V91.2305H69.1035V78.8574H70.6348ZM83.7188 83.875V85.0781H78.8242V86.0078H82.3105V89.043H75.2832V89.9453H82.6523V91.1074H73.793V87.9492H80.8203V87.1562H73.7793V86.0078H77.3066V85.0781H72.4531V83.875H83.7188ZM82.2695 79.2402V83.0957H73.875V79.2402H82.2695ZM75.3652 80.4297V81.9062H80.752V80.4297H75.3652ZM94.834 78.8574V91.2305H93.3027V78.8574H94.834ZM88.1758 79.7598C90.0352 79.7598 91.3887 81.4551 91.4023 84.1211C91.3887 86.8145 90.0352 88.4961 88.1758 88.4961C86.3027 88.4961 84.9492 86.8145 84.9492 84.1211C84.9492 81.4551 86.3027 79.7598 88.1758 79.7598ZM88.1758 81.127C87.123 81.127 86.4121 82.2344 86.4121 84.1211C86.4121 86.0215 87.123 87.1289 88.1758 87.1289C89.2148 87.1289 89.9258 86.0215 89.9258 84.1211C89.9258 82.2344 89.2148 81.127 88.1758 81.127ZM102.777 86.0898V87.416H104.404V86.0898H105.812V90.0137C107.262 89.4053 107.932 88.1543 107.932 86.9785V85.9941H109.449V86.9785C109.449 88.2637 110.105 89.5078 111.637 90.0273L110.857 91.1621C109.771 90.7725 109.066 90.0205 108.684 89.084C108.267 89.9932 107.562 90.7451 106.537 91.1621L105.812 90.082V91.0664H101.355V86.0898H102.777ZM102.777 89.9043H104.404V88.5508H102.777V89.9043ZM103.406 79.3633C104.999 79.3633 106.257 80.252 106.578 81.5918H108.807V78.8574H110.324V85.4062H108.807V82.8496H106.578C106.277 84.2236 105.006 85.1328 103.406 85.1328C101.506 85.1328 100.139 83.9434 100.139 82.2344C100.139 80.5391 101.506 79.3633 103.406 79.3633ZM103.406 80.6211C102.34 80.6211 101.588 81.25 101.588 82.2344C101.588 83.2324 102.34 83.8887 103.406 83.8887C104.445 83.8887 105.184 83.2324 105.197 82.2344C105.184 81.25 104.445 80.6211 103.406 80.6211ZM115.451 79.7598C117.126 79.7598 118.363 81.1543 118.582 83.4102H120.934V78.8574H122.438V91.2305H120.934V84.6406H118.596C118.432 87.0264 117.174 88.4961 115.451 88.4961C113.592 88.4961 112.279 86.8145 112.279 84.1211C112.279 81.4551 113.592 79.7598 115.451 79.7598ZM115.451 81.127C114.426 81.127 113.729 82.2344 113.742 84.1211C113.729 86.0215 114.426 87.1289 115.451 87.1289C116.477 87.1289 117.16 86.0215 117.174 84.1211C117.16 82.2344 116.477 81.127 115.451 81.127ZM135.467 88.4688V89.7129H124.174V88.4688H126.785V85.3379C125.801 84.7773 125.206 83.8955 125.213 82.7949C125.199 80.8262 127.141 79.5273 129.793 79.5273C132.459 79.5273 134.4 80.8262 134.4 82.7949C134.4 83.875 133.826 84.7432 132.869 85.3105V88.4688H135.467ZM129.793 80.7305C127.947 80.7305 126.689 81.5098 126.703 82.7949C126.689 84.0664 127.947 84.8594 129.793 84.8594C131.639 84.8594 132.91 84.0664 132.91 82.7949C132.91 81.5098 131.639 80.7305 129.793 80.7305ZM128.289 88.4688H131.324V85.8848C130.853 85.9941 130.34 86.0488 129.793 86.0488C129.26 86.0488 128.754 85.9941 128.289 85.8984V88.4688ZM137.777 90.1094C137.189 90.1094 136.711 89.6309 136.711 89.043C136.711 88.4688 137.189 87.9902 137.777 87.9902C138.338 87.9902 138.83 88.4688 138.83 89.043C138.83 89.6309 138.338 90.1094 137.777 90.1094Z" fill="#121416"/>
<path d="M30.4945 104.208C30.4945 104.978 30.3464 105.742 30.0502 106.5C29.7539 107.257 29.3583 107.932 28.8632 108.524C28.368 109.117 27.8243 109.561 27.2318 109.857L26.6351 109.07C27.1683 108.808 27.6677 108.417 28.1332 107.896C28.5987 107.375 28.9711 106.789 29.2504 106.138C29.5297 105.486 29.6693 104.843 29.6693 104.208V102.342H30.4945V104.208ZM30.6722 104.208C30.6722 104.826 30.8098 105.444 31.0848 106.062C31.3599 106.679 31.7323 107.227 32.202 107.706C32.6718 108.184 33.1817 108.546 33.7318 108.791L33.1732 109.578C32.5638 109.299 32.0074 108.884 31.5038 108.334C31.0002 107.784 30.6024 107.149 30.3104 106.43C30.0184 105.71 29.8724 104.97 29.8724 104.208V102.342H30.6722V104.208ZM33.3636 102.735H27.0033V101.91H33.3636V102.735ZM35.9408 112.028H34.9379V100.742H35.9408V112.028ZM46.516 102.177H39.1781V101.352H46.516V102.177ZM48.2045 106.328H37.8705V105.503H48.2045V106.328ZM46.8461 102.189C46.8461 102.841 46.8249 103.436 46.7826 103.973C46.7403 104.511 46.6387 105.126 46.4779 105.82L45.4877 105.757C45.6062 105.274 45.6908 104.824 45.7416 104.405C45.7924 103.986 45.8241 103.618 45.8368 103.3C45.8495 102.983 45.8558 102.613 45.8558 102.189V101.352H46.8461V102.189ZM46.8969 111.876H39.14V107.89H46.8969V111.876ZM40.1302 111.063H45.9066V108.677H40.1302V111.063ZM53.6127 105.884C54.5437 105.875 55.3117 105.85 55.9169 105.808C56.522 105.765 57.1377 105.681 57.764 105.554L57.8529 106.379C57.1927 106.506 56.5516 106.593 55.9296 106.639C55.3075 106.686 54.5352 106.713 53.6127 106.722H52.889V105.884H53.6127ZM57.1547 102.494H53.8793V106.29H52.889V101.669H57.1547V102.494ZM61.9535 107.699H61.0013V100.755H61.9535V107.699ZM61.306 104.576H59.1351V103.751H61.306V104.576ZM59.4144 107.356H58.4877V100.971H59.4144V107.356ZM58.2211 107.826C59.0082 107.826 59.6853 107.909 60.2523 108.074C60.8194 108.239 61.2552 108.478 61.5599 108.791C61.8646 109.104 62.017 109.481 62.017 109.921C62.017 110.353 61.8646 110.725 61.5599 111.038C61.2552 111.351 60.8194 111.59 60.2523 111.755C59.6853 111.92 59.0082 112.003 58.2211 112.003C57.4424 112.003 56.7675 111.92 56.1962 111.755C55.6249 111.59 55.189 111.351 54.8885 111.038C54.5881 110.725 54.4379 110.353 54.4379 109.921C54.4379 109.481 54.5881 109.104 54.8885 108.791C55.189 108.478 55.6228 108.239 56.1898 108.074C56.7569 107.909 57.434 107.826 58.2211 107.826ZM58.2211 108.626C57.6455 108.626 57.1462 108.677 56.723 108.778C56.2998 108.88 55.9782 109.028 55.7582 109.223C55.5381 109.417 55.4281 109.65 55.4281 109.921C55.4281 110.183 55.5402 110.412 55.7645 110.606C55.9888 110.801 56.3104 110.949 56.7294 111.051C57.1483 111.152 57.6455 111.203 58.2211 111.203C58.7966 111.203 59.2938 111.152 59.7128 111.051C60.1317 110.949 60.4554 110.801 60.684 110.606C60.9125 110.412 61.0267 110.183 61.0267 109.921C61.0267 109.65 60.9146 109.417 60.6903 109.223C60.466 109.028 60.1444 108.88 59.7255 108.778C59.3065 108.677 58.8051 108.626 58.2211 108.626ZM74.1029 103.294H72.1478V102.456H74.1029V103.294ZM74.1029 105.706H72.1478V104.855H74.1029V105.706ZM72.4271 107.471H71.4369V100.742H72.4271V107.471ZM68.809 107.61C69.5622 107.61 70.2181 107.699 70.7767 107.877C71.3353 108.055 71.767 108.311 72.0717 108.645C72.3763 108.979 72.5287 109.371 72.5287 109.819C72.5287 110.268 72.3763 110.657 72.0717 110.987C71.767 111.317 71.3353 111.571 70.7767 111.749C70.2181 111.927 69.5622 112.02 68.809 112.028C68.0557 112.02 67.3955 111.927 66.8285 111.749C66.2614 111.571 65.8256 111.317 65.5209 110.987C65.2162 110.657 65.0638 110.268 65.0638 109.819C65.0638 109.371 65.2183 108.979 65.5272 108.645C65.8361 108.311 66.272 108.055 66.8348 107.877C67.3977 107.699 68.0557 107.61 68.809 107.61ZM68.809 108.436C68.2504 108.436 67.7616 108.491 67.3427 108.601C66.9237 108.711 66.6021 108.869 66.3778 109.077C66.1535 109.284 66.0414 109.532 66.0414 109.819C66.0414 110.099 66.1535 110.342 66.3778 110.549C66.6021 110.757 66.9237 110.917 67.3427 111.032C67.7616 111.146 68.2504 111.207 68.809 111.216C69.3591 111.207 69.8415 111.146 70.2562 111.032C70.6709 110.917 70.9926 110.757 71.2211 110.549C71.4496 110.342 71.5638 110.099 71.5638 109.819C71.5638 109.532 71.4496 109.284 71.2211 109.077C70.9926 108.869 70.6709 108.711 70.2562 108.601C69.8415 108.491 69.3591 108.436 68.809 108.436ZM65.1527 105.96H64.1498V101.44H65.1527V105.96ZM65.0511 105.604C65.9398 105.604 66.8073 105.566 67.6537 105.49C68.5 105.414 69.3633 105.287 70.2435 105.109L70.3705 105.922C69.4564 106.108 68.5677 106.241 67.7045 106.322C66.8412 106.402 65.9567 106.442 65.0511 106.442H64.1498V105.604H65.0511ZM84.1449 112.054H83.142V100.742H84.1449V112.054ZM78.14 101.618C78.6986 101.618 79.1958 101.781 79.6317 102.107C80.0676 102.433 80.4082 102.892 80.6537 103.484C80.8991 104.077 81.0219 104.767 81.0219 105.554C81.0219 106.341 80.8991 107.031 80.6537 107.623C80.4082 108.215 80.0676 108.673 79.6317 108.994C79.1958 109.316 78.6986 109.477 78.14 109.477C77.5814 109.477 77.0842 109.316 76.6483 108.994C76.2124 108.673 75.8718 108.215 75.6263 107.623C75.3809 107.031 75.2582 106.341 75.2582 105.554C75.2582 104.767 75.3809 104.077 75.6263 103.484C75.8718 102.892 76.2124 102.433 76.6483 102.107C77.0842 101.781 77.5814 101.618 78.14 101.618ZM78.14 102.507C77.7676 102.507 77.4354 102.634 77.1434 102.888C76.8514 103.142 76.625 103.497 76.4642 103.954C76.3034 104.411 76.223 104.944 76.223 105.554C76.223 106.155 76.3034 106.686 76.4642 107.147C76.625 107.608 76.8514 107.964 77.1434 108.213C77.4354 108.463 77.7676 108.588 78.14 108.588C78.5124 108.588 78.8446 108.463 79.1366 108.213C79.4286 107.964 79.655 107.608 79.8158 107.147C79.9766 106.686 80.057 106.155 80.057 105.554C80.057 104.944 79.9766 104.411 79.8158 103.954C79.655 103.497 79.4307 103.142 79.1429 102.888C78.8552 102.634 78.5209 102.507 78.14 102.507ZM89.7689 101.567C90.3614 101.567 90.8861 101.68 91.3431 101.904C91.8002 102.128 92.1578 102.441 92.4159 102.843C92.674 103.245 92.8031 103.704 92.8031 104.221C92.8031 104.737 92.674 105.196 92.4159 105.598C92.1578 106 91.8002 106.313 91.3431 106.538C90.8861 106.762 90.3614 106.874 89.7689 106.874C89.1849 106.874 88.6602 106.762 88.1947 106.538C87.7292 106.313 87.3674 106 87.1093 105.598C86.8511 105.196 86.722 104.737 86.722 104.221C86.722 103.704 86.8511 103.245 87.1093 102.843C87.3674 102.441 87.7292 102.128 88.1947 101.904C88.6602 101.68 89.1849 101.567 89.7689 101.567ZM89.7689 102.443C89.3711 102.443 89.0157 102.517 88.7025 102.666C88.3894 102.814 88.1439 103.023 87.9662 103.294C87.7885 103.565 87.6996 103.874 87.6996 104.221C87.6996 104.568 87.7885 104.875 87.9662 105.141C88.1439 105.408 88.3894 105.617 88.7025 105.77C89.0157 105.922 89.3711 105.998 89.7689 105.998C90.1667 105.998 90.5222 105.922 90.8353 105.77C91.1485 105.617 91.3918 105.408 91.5653 105.141C91.7388 104.875 91.8256 104.568 91.8256 104.221C91.8256 103.874 91.7388 103.565 91.5653 103.294C91.3918 103.023 91.1485 102.814 90.8353 102.666C90.5222 102.517 90.1667 102.443 89.7689 102.443ZM95.3295 112.054H94.3392V100.742H95.3295V112.054ZM86.1381 108.715C87.0775 108.715 87.9302 108.706 88.6962 108.689C89.4621 108.673 90.2767 108.637 91.14 108.582C92.0033 108.527 92.82 108.444 93.5902 108.334L93.6664 109.07C92.8708 109.214 92.0456 109.322 91.1908 109.394C90.336 109.466 89.5341 109.513 88.785 109.534C88.036 109.555 87.2002 109.565 86.2777 109.565L86.1381 108.715ZM103.772 101.161C104.33 101.161 104.832 101.267 105.276 101.479C105.721 101.69 106.068 101.986 106.317 102.367C106.567 102.748 106.692 103.18 106.692 103.662C106.692 104.145 106.567 104.574 106.317 104.951C106.068 105.327 105.721 105.621 105.276 105.833C104.832 106.045 104.33 106.15 103.772 106.15C103.205 106.15 102.699 106.045 102.255 105.833C101.81 105.621 101.463 105.327 101.214 104.951C100.964 104.574 100.839 104.145 100.839 103.662C100.839 103.18 100.964 102.748 101.214 102.367C101.463 101.986 101.81 101.69 102.255 101.479C102.699 101.267 103.205 101.161 103.772 101.161ZM103.772 101.999C103.399 101.999 103.065 102.069 102.769 102.208C102.473 102.348 102.24 102.545 102.071 102.799C101.901 103.053 101.817 103.34 101.817 103.662C101.817 103.984 101.901 104.271 102.071 104.525C102.24 104.779 102.473 104.978 102.769 105.122C103.065 105.266 103.399 105.338 103.772 105.338C104.144 105.338 104.479 105.266 104.775 105.122C105.071 104.978 105.304 104.779 105.473 104.525C105.642 104.271 105.727 103.984 105.727 103.662C105.727 103.34 105.642 103.053 105.473 102.799C105.304 102.545 105.071 102.348 104.775 102.208C104.479 102.069 104.144 101.999 103.772 101.999ZM109.891 106.544H108.901V100.742H109.891V106.544ZM109.891 109.807H103.556V111.521H102.578V109.058H108.901V107.89H102.553V107.09H109.891V109.807ZM110.297 111.876H102.578V111.076H110.297V111.876ZM115.426 102.494C115.426 103.205 115.295 103.872 115.033 104.494C114.77 105.116 114.406 105.657 113.941 106.119C113.475 106.58 112.929 106.933 112.303 107.179L111.77 106.379C112.328 106.167 112.821 105.867 113.249 105.478C113.676 105.088 114.009 104.635 114.245 104.119C114.482 103.603 114.601 103.061 114.601 102.494V101.326H115.426V102.494ZM115.578 102.57C115.578 103.07 115.699 103.554 115.94 104.024C116.182 104.494 116.514 104.906 116.937 105.262C117.36 105.617 117.842 105.888 118.384 106.074L117.838 106.861C117.237 106.641 116.704 106.318 116.239 105.89C115.773 105.463 115.411 104.963 115.153 104.392C114.895 103.821 114.766 103.214 114.766 102.57V101.326H115.578V102.57ZM120.631 107.61H119.641V100.742H120.631V107.61ZM122.332 104.525H120.352V103.688H122.332V104.525ZM117.013 107.902C117.783 107.902 118.448 107.983 119.006 108.144C119.565 108.304 119.992 108.537 120.288 108.842C120.585 109.146 120.733 109.515 120.733 109.946C120.733 110.378 120.585 110.748 120.288 111.057C119.992 111.366 119.567 111.601 119.013 111.762C118.458 111.923 117.792 112.003 117.013 112.003C116.243 112.003 115.576 111.923 115.014 111.762C114.451 111.601 114.019 111.366 113.719 111.057C113.418 110.748 113.268 110.378 113.268 109.946C113.268 109.515 113.418 109.146 113.719 108.842C114.019 108.537 114.451 108.304 115.014 108.144C115.576 107.983 116.243 107.902 117.013 107.902ZM117.013 108.702C116.454 108.702 115.968 108.751 115.553 108.848C115.138 108.945 114.821 109.089 114.601 109.28C114.381 109.47 114.271 109.692 114.271 109.946C114.271 110.209 114.381 110.435 114.601 110.625C114.821 110.816 115.136 110.96 115.547 111.057C115.957 111.154 116.446 111.207 117.013 111.216C117.589 111.207 118.082 111.154 118.492 111.057C118.903 110.96 119.218 110.816 119.438 110.625C119.658 110.435 119.768 110.209 119.768 109.946C119.768 109.684 119.658 109.46 119.438 109.273C119.218 109.087 118.9 108.945 118.486 108.848C118.071 108.751 117.58 108.702 117.013 108.702ZM128.185 100.945C129.023 100.945 129.74 101.019 130.337 101.167C130.933 101.316 131.388 101.536 131.702 101.828C132.015 102.12 132.171 102.473 132.171 102.888C132.171 103.311 132.015 103.668 131.702 103.96C131.388 104.252 130.933 104.475 130.337 104.627C129.74 104.779 129.023 104.86 128.185 104.868C127.347 104.86 126.63 104.779 126.033 104.627C125.436 104.475 124.979 104.252 124.662 103.96C124.345 103.668 124.186 103.311 124.186 102.888C124.186 102.473 124.345 102.12 124.662 101.828C124.979 101.536 125.436 101.316 126.033 101.167C126.63 101.019 127.347 100.945 128.185 100.945ZM128.185 101.694C127.567 101.694 127.036 101.741 126.592 101.834C126.147 101.927 125.809 102.065 125.576 102.247C125.343 102.429 125.227 102.642 125.227 102.888C125.227 103.15 125.341 103.372 125.57 103.554C125.798 103.736 126.135 103.874 126.579 103.967C127.023 104.06 127.559 104.106 128.185 104.106C128.811 104.106 129.347 104.06 129.791 103.967C130.235 103.874 130.574 103.734 130.807 103.548C131.039 103.362 131.156 103.142 131.156 102.888C131.156 102.642 131.037 102.431 130.8 102.253C130.563 102.075 130.223 101.938 129.778 101.84C129.334 101.743 128.803 101.694 128.185 101.694ZM133.327 106.442H123.043V105.63H133.327V106.442ZM132.006 109.946H125.303V111.317H124.313V109.21H131.029V108.182H124.287V107.42H132.006V109.946ZM132.349 111.901H124.313V111.114H132.349V111.901ZM55.8026 125.877C56.6151 125.877 57.3176 125.957 57.91 126.118C58.5025 126.279 58.9595 126.516 59.2811 126.829C59.6027 127.142 59.7635 127.515 59.7635 127.946C59.7635 128.369 59.6027 128.736 59.2811 129.044C58.9595 129.353 58.5004 129.59 57.9037 129.755C57.307 129.92 56.6066 130.003 55.8026 130.003C54.9986 130.003 54.3003 129.92 53.7079 129.755C53.1154 129.59 52.6584 129.353 52.3368 129.044C52.0152 128.736 51.8544 128.369 51.8544 127.946C51.8544 127.515 52.0152 127.142 52.3368 126.829C52.6584 126.516 53.1154 126.279 53.7079 126.118C54.3003 125.957 54.9986 125.877 55.8026 125.877ZM55.8026 126.639C55.2102 126.639 54.6897 126.692 54.2411 126.797C53.7925 126.903 53.4476 127.056 53.2064 127.254C52.9652 127.453 52.8446 127.684 52.8446 127.946C52.8446 128.2 52.9652 128.424 53.2064 128.619C53.4476 128.814 53.7925 128.962 54.2411 129.063C54.6897 129.165 55.2102 129.216 55.8026 129.216C56.4035 129.216 56.9261 129.165 57.3705 129.063C57.8148 128.962 58.1597 128.814 58.4052 128.619C58.6506 128.424 58.7733 128.2 58.7733 127.946C58.7733 127.684 58.6506 127.453 58.4052 127.254C58.1597 127.056 57.8148 126.903 57.3705 126.797C56.9261 126.692 56.4035 126.639 55.8026 126.639ZM59.2557 120.139H51.9305V119.326H59.2557V120.139ZM60.9823 124.823H50.7118V124.011H60.9823V124.823ZM55.9423 124.265H54.9647V121.827H55.9423V124.265ZM59.6747 120.278C59.6747 120.888 59.6578 121.408 59.6239 121.84C59.59 122.271 59.5012 122.75 59.3573 123.274L58.3798 123.16C58.5152 122.635 58.5998 122.168 58.6337 121.757C58.6675 121.347 58.6844 120.854 58.6844 120.278V119.326H59.6747V120.278ZM65.6288 130.028H64.6005V125.712H65.6288V130.028ZM69.5262 130.028H68.5233V125.712H69.5262V130.028ZM72.2557 126.004H61.9218V125.179H72.2557V126.004ZM67.0634 119.199C67.8505 119.199 68.5445 119.299 69.1454 119.498C69.7463 119.696 70.2118 119.982 70.5419 120.354C70.8719 120.727 71.037 121.163 71.037 121.662C71.037 122.153 70.8719 122.583 70.5419 122.951C70.2118 123.319 69.7463 123.602 69.1454 123.801C68.5445 124 67.8505 124.1 67.0634 124.1C66.2762 124.1 65.5844 124 64.9877 123.801C64.391 123.602 63.9255 123.319 63.5912 122.951C63.2569 122.583 63.0897 122.153 63.0897 121.662C63.0897 121.163 63.2548 120.727 63.5848 120.354C63.9149 119.982 64.3804 119.696 64.9813 119.498C65.5822 119.299 66.2762 119.199 67.0634 119.199ZM67.0634 120.012C66.4794 120.012 65.9652 120.079 65.5209 120.215C65.0765 120.35 64.7316 120.543 64.4862 120.792C64.2408 121.042 64.118 121.332 64.118 121.662C64.118 121.992 64.2408 122.28 64.4862 122.525C64.7316 122.771 65.0765 122.961 65.5209 123.097C65.9652 123.232 66.4794 123.3 67.0634 123.3C67.6473 123.3 68.1636 123.232 68.6122 123.097C69.0608 122.961 69.4078 122.771 69.6532 122.525C69.8986 122.28 70.0214 121.992 70.0214 121.662C70.0214 121.332 69.8986 121.042 69.6532 120.792C69.4078 120.543 69.0608 120.35 68.6122 120.215C68.1636 120.079 67.6473 120.012 67.0634 120.012ZM78.8065 121.51H73.1444V120.697H78.8065V121.51ZM75.9755 122.271C76.4494 122.271 76.8705 122.379 77.2386 122.595C77.6068 122.811 77.8967 123.114 78.1083 123.503C78.3199 123.892 78.4257 124.337 78.4257 124.836C78.4257 125.335 78.3199 125.78 78.1083 126.169C77.8967 126.558 77.6068 126.865 77.2386 127.089C76.8705 127.314 76.4494 127.426 75.9755 127.426C75.51 127.426 75.0931 127.314 74.725 127.089C74.3568 126.865 74.0691 126.556 73.8617 126.163C73.6543 125.769 73.5507 125.327 73.5507 124.836C73.5507 124.345 73.6543 123.903 73.8617 123.509C74.0691 123.116 74.3568 122.811 74.725 122.595C75.0931 122.379 75.51 122.271 75.9755 122.271ZM75.9755 123.109C75.6877 123.109 75.4253 123.186 75.1884 123.338C74.9514 123.49 74.7673 123.695 74.6361 123.954C74.5049 124.212 74.4393 124.506 74.4393 124.836C74.4393 125.166 74.507 125.462 74.6425 125.725C74.7779 125.987 74.962 126.19 75.1947 126.334C75.4274 126.478 75.6877 126.55 75.9755 126.55C76.2717 126.55 76.5383 126.478 76.7753 126.334C77.0122 126.19 77.1984 125.987 77.3339 125.725C77.4693 125.462 77.537 125.166 77.537 124.836C77.537 124.506 77.4693 124.212 77.3339 123.954C77.1984 123.695 77.0122 123.49 76.7753 123.338C76.5383 123.186 76.2717 123.109 75.9755 123.109ZM82.7802 130.028H81.828V118.742H82.7802V130.028ZM82.1454 124.328H79.9872V123.503H82.1454V124.328ZM80.33 129.47H79.3905V119.021H80.33V129.47ZM76.4833 121.192H75.493V119.085H76.4833V121.192ZM86.0175 121.408H89.6864V119.682H90.6766V124.76H85.0272V119.682H86.0175V121.408ZM89.6864 123.947V122.183H86.0175V123.947H89.6864ZM88.3534 127.108H87.3505V124.468H88.3534V127.108ZM93.1268 130.028H92.1366V118.742H93.1268V130.028ZM94.9677 124.328H92.8602V123.49H94.9677V124.328ZM85.0907 126.867C86.4195 126.85 87.5832 126.821 88.5819 126.778C89.5806 126.736 90.5243 126.656 91.413 126.537L91.4764 127.286C90.7401 127.405 89.9657 127.493 89.1532 127.553C88.3407 127.612 87.5663 127.652 86.83 127.673C86.0936 127.694 85.2938 127.709 84.4305 127.718L84.2655 126.867H85.0907ZM99.1825 127.946H98.205V124.569H99.1825V127.946ZM103.41 127.946H102.407V124.569H103.41V127.946ZM105.974 128.581H95.6405V127.743H105.974V128.581ZM100.782 119.453C101.586 119.453 102.299 119.574 102.921 119.815C103.543 120.056 104.03 120.397 104.381 120.837C104.732 121.277 104.908 121.785 104.908 122.36C104.908 122.936 104.732 123.442 104.381 123.877C104.03 124.313 103.543 124.652 102.921 124.893C102.299 125.134 101.586 125.255 100.782 125.255C99.9865 125.255 99.2756 125.134 98.6493 124.893C98.023 124.652 97.5342 124.313 97.183 123.877C96.8317 123.442 96.6561 122.936 96.6561 122.36C96.6561 121.785 96.8317 121.277 97.183 120.837C97.5342 120.397 98.023 120.056 98.6493 119.815C99.2756 119.574 99.9865 119.453 100.782 119.453ZM100.782 120.278C100.173 120.27 99.6289 120.352 99.1508 120.526C98.6726 120.699 98.2981 120.945 98.0272 121.262C97.7564 121.58 97.621 121.946 97.621 122.36C97.621 122.775 97.7564 123.141 98.0272 123.458C98.2981 123.776 98.6726 124.023 99.1508 124.201C99.6289 124.379 100.173 124.468 100.782 124.468C101.391 124.468 101.935 124.379 102.413 124.201C102.892 124.023 103.266 123.776 103.537 123.458C103.808 123.141 103.943 122.775 103.943 122.36C103.943 121.946 103.808 121.58 103.537 121.262C103.266 120.945 102.892 120.699 102.413 120.526C101.935 120.352 101.391 120.27 100.782 120.278ZM108.615 126.41H107.549L107.46 119.809H108.704L108.615 126.41ZM108.082 129.076C107.938 129.076 107.803 129.038 107.676 128.962C107.549 128.886 107.449 128.784 107.377 128.657C107.305 128.53 107.269 128.395 107.269 128.251C107.269 128.107 107.305 127.972 107.377 127.845C107.449 127.718 107.549 127.618 107.676 127.546C107.803 127.474 107.938 127.438 108.082 127.438C108.226 127.438 108.361 127.474 108.488 127.546C108.615 127.618 108.715 127.718 108.786 127.845C108.858 127.972 108.894 128.107 108.894 128.251C108.894 128.395 108.858 128.53 108.786 128.657C108.715 128.784 108.615 128.886 108.488 128.962C108.361 129.038 108.226 129.076 108.082 129.076Z" fill="#6F7686"/>
</svg>
