<svg width="24" height="24" viewBox="0 0 24 24" fill="none" xmlns="http://www.w3.org/2000/svg">
<mask id="mask0_247_2160" style="mask-type:alpha" maskUnits="userSpaceOnUse" x="0" y="0" width="24" height="24">
<rect width="24" height="24" fill="#D9D9D9"/>
</mask>
<g mask="url(#mask0_247_2160)">
<path d="M14 19L19 14H15C14.7167 14 14.4792 14.0958 14.2875 14.2875C14.0958 14.4792 14 14.7167 14 15V19ZM5 21C4.45 21 3.97917 20.8042 3.5875 20.4125C3.19583 20.0208 3 19.55 3 19V5C3 4.45 3.19583 3.97917 3.5875 3.5875C3.97917 3.19583 4.45 3 5 3H19C19.55 3 20.0208 3.19583 20.4125 3.5875C20.8042 3.97917 21 4.45 21 5V14.175C21 14.4417 20.95 14.6958 20.85 14.9375C20.75 15.1792 20.6083 15.3917 20.425 15.575L15.575 20.425C15.3917 20.6083 15.1792 20.75 14.9375 20.85C14.6958 20.95 14.4417 21 14.175 21H5ZM8 14H11C11.2833 14 11.5208 13.9042 11.7125 13.7125C11.9042 13.5208 12 13.2833 12 13C12 12.7167 11.9042 12.4792 11.7125 12.2875C11.5208 12.0958 11.2833 12 11 12H8C7.71667 12 7.47917 12.0958 7.2875 12.2875C7.09583 12.4792 7 12.7167 7 13C7 13.2833 7.09583 13.5208 7.2875 13.7125C7.47917 13.9042 7.71667 14 8 14ZM8 10H16C16.2833 10 16.5208 9.90417 16.7125 9.7125C16.9042 9.52083 17 9.28333 17 9C17 8.71667 16.9042 8.47917 16.7125 8.2875C16.5208 8.09583 16.2833 8 16 8H8C7.71667 8 7.47917 8.09583 7.2875 8.2875C7.09583 8.47917 7 8.71667 7 9C7 9.28333 7.09583 9.52083 7.2875 9.7125C7.47917 9.90417 7.71667 10 8 10Z" fill="#1C1B1F"/>
</g>
</svg>
